<?xml version="1.0" encoding="UTF-8"?><svg id="Layer_2" xmlns="http://www.w3.org/2000/svg" viewBox="0 0 299.24 215.86"><defs><style>.cls-1{fill:#bd3128;}</style></defs><g id="Layer_3"><g><path class="cls-1" d="M139.65,44.67c-.38,1.09-.58,2.27-.58,3.49,0,5.93,4.82,10.74,10.75,10.74s10.75-4.81,10.75-10.74c0-1.22-.2-2.4-.58-3.49h0c-.27-1.66-3.8-6.95-5.58-13.01-1.82-6.23-4.59-31.66-4.59-31.66,0,0-2.77,25.43-4.59,31.66-1.76,6.05-5.28,11.33-5.57,12.99-.01,.01-.01,.02-.01,.02Z"/><path class="cls-1" d="M154.41,184.2c1.77-6.03,5.28-11.32,5.57-12.99,0-.02,0-.03,0-.03,.38-1.09,.58-2.26,.58-3.48,0-5.94-4.81-10.75-10.75-10.75s-10.75,4.81-10.75,10.75c0,1.22,.2,2.39,.58,3.48,0,.02,.01,.03,.01,.05,.33,1.69,3.82,6.96,5.57,12.97,1.82,6.23,4.59,31.66,4.59,31.66,0,0,2.77-25.43,4.59-31.66Z"/><path class="cls-1" d="M283.41,107.79s-3.39,17.69-14.1,31.64c-3.48,4.52-6.6,8.32-9.53,11.49-11.02,1.09-16.9,.34-23.18-.29-10.05-1.02-16.41-2.04-30.34-7.73-8.33-3.4-18.9-8.42-26.68-14.93-4.73-3.95-10.1-8.89-15.28-13.84-.57-.55-1.11-1.08-1.64-1.59l48.92-4.73-48.89-4.73c.51-.51,1.04-1.03,1.6-1.56,3.96-3.78,8.03-7.55,11.84-10.89,2.79-1.99,6.35-4.34,10.64-6.09,4.99-2.03,10.09-3.36,14.41-3.6,7.15-.4,12.92,.2,18.3,3.47,6.19,3.76,10.7,7.5,13.52,12.55,4,7.17,5.1,15.86,.91,25.07-3.84,8.43-16.17,12-16.17,12,0,0,12.09,0,20.09-10.03,3.93-4.92,5.95-14.41,3.86-23.45-2.46-10.64-9.85-19.37-16.07-23-5.85-3.42-9.68-5.15-17.07-5.72,12.36-4.88,18.56-5.85,28.05-6.81,6.28-.64,12.17-1.39,23.22-.29,2.92,3.16,6.03,6.94,9.49,11.44,10.71,13.94,14.1,31.64,14.1,31.64,0,0-2.28-15.33-9.19-28.27-1.67-3.12-4.19-8.34-8.27-14.08,18.74,2.65,33.29,8.26,33.29,8.26,0,0-21.56-10.21-38.72-15-1.63-1.78-3.42-3.56-5.41-5.28-13.26-11.48-31.66-15.45-43.88-13.54-10.93,1.71-23.59,7.1-31.25,13.01-7.61,5.87-11.12,8.53-15.3,13-9.1,9.73-10.31,15.76-10.31,15.76,0,0,2.55-3.34,6.16-5.89,5.27-3.73,9.77-6.98,12.85-2.94,1.73,2.27-.3,3.11-1.37,3.99-.01,.01-.02,.02-.03,.03-1.17,.81-2.32,1.63-3.42,2.48-7.61,5.87-12.54,10.55-16.62,15.11-.47,.53-1.33,1.39-2.32,2.46-.99-1.07-1.85-1.93-2.32-2.46-4.08-4.56-9.01-9.24-16.62-15.11-.69-.53-1.42-1.05-2.14-1.57-.07-.08-.13-.17-.24-.26-1.07-.88-3.53-2.41-1.8-4.68,3.08-4.04,7.58-.79,12.85,2.94,3.62,2.56,6.16,5.89,6.16,5.89,0,0-1.21-6.03-10.31-15.76-4.18-4.47-7.69-7.13-15.3-13-7.66-5.91-20.32-11.3-31.25-13.01-12.22-1.91-30.62,2.06-43.88,13.54-1.9,1.64-3.62,3.34-5.19,5.04C22.3,63.16,.02,73.71,.02,73.71c0,0,14.92-5.75,34-8.36-4.12,5.77-6.66,11.03-8.34,14.17-6.91,12.94-9.19,28.27-9.19,28.27,0,0,3.39-17.69,14.1-31.64,3.48-4.53,6.62-8.34,9.56-11.51,10.59-1,16.37-.27,22.52,.36,10.06,1.02,16.41,2.04,30.34,7.73,8.33,3.4,18.9,8.42,26.68,14.93,4.73,3.95,10.1,8.89,15.28,13.84,.6,.57,1.16,1.12,1.71,1.66l-47.82,4.62,47.84,4.63c-.55,.55-1.13,1.12-1.74,1.7-4.29,4.09-8.69,8.17-12.77,11.7-2.39,1.68-5.22,3.52-8.48,5.1-4.85,2.36-10.13,3.8-14.45,4.04-7.15,.4-12.92-.2-18.3-3.47-6.19-3.76-10.7-7.5-13.52-12.55-4-7.17-5.1-15.86-.91-25.07,3.84-8.43,16.17-12,16.17-12,0,0-12.09,0-20.09,10.03-3.93,4.92-5.95,14.41-3.86,23.45,2.46,10.64,9.85,19.37,16.07,23,5.44,3.18,9.13,4.9,15.56,5.58-12.15,4.77-18.32,5.73-27.72,6.68-6.14,.62-11.9,1.35-22.46,.36-2.95-3.18-6.09-7-9.6-11.55-10.71-13.94-14.1-31.64-14.1-31.64,0,0,2.28,15.33,9.19,28.27,1.68,3.15,4.23,8.43,8.37,14.22-19.1-2.61-34.05-8.37-34.05-8.37,0,0,22.35,10.59,39.65,15.26,1.56,1.68,3.26,3.36,5.13,4.98,13.26,11.48,31.66,15.45,43.88,13.54,10.93-1.71,23.59-7.1,31.25-13.01,7.61-5.87,11.12-8.53,15.3-13,9.1-9.73,10.31-15.76,10.31-15.76,0,0-2.55,3.34-6.16,5.89-5.27,3.73-9.77,6.98-12.85,2.94-1.73-2.27,.74-3.8,1.8-4.68,.08-.06,.11-.12,.17-.18,.74-.53,1.48-1.06,2.19-1.61,7.61-5.87,12.54-10.55,16.62-15.11,.47-.53,1.34-1.4,2.33-2.47,.99,1.07,1.85,1.94,2.33,2.47,4.08,4.56,9.01,9.24,16.62,15.11,1.54,1.19,3.17,2.32,4.84,3.43,.62,.81,.9,1.82-.03,3.03-3.08,4.04-7.58,.79-12.85-2.94-3.61-2.56-6.16-5.89-6.16-5.89,0,0,1.21,6.03,10.31,15.76,4.18,4.47,7.69,7.13,15.3,13,7.66,5.91,20.32,11.3,31.25,13.01,12.22,1.91,30.62-2.06,43.88-13.54,1.97-1.7,3.74-3.46,5.36-5.23,17.17-4.78,38.77-15.01,38.77-15.01,0,0-14.57,5.62-33.32,8.27,4.1-5.75,6.63-10.99,8.3-14.12,6.91-12.94,9.19-28.27,9.19-28.27m-95.64,40c2.6,1.26,5.27,2.48,7.99,3.67,21.18,9.18,35.96,9.89,54.49,7.64,.24-.03,.48-.07,.73-.1-.54,.4-1.08,.78-1.62,1.14-8.43,5.58-17.12,10.45-32.41,9.66-13.33-.69-22.96-6.22-29.94-12.64-4.64-4.27-3.27-5.77-2.52-7.32,.9-1.86,2.21-2.14,3.29-2.04Zm-3.29-82.04c-.75-1.55-2.12-3.06,2.52-7.32,6.98-6.42,16.62-11.95,29.94-12.64,15.3-.79,23.98,4.08,32.41,9.66,.56,.37,1.12,.77,1.69,1.19-.26-.04-.53-.08-.79-.11-18.53-2.25-33.32-1.54-54.49,7.64-2.39,1.03-4.72,2.1-7.01,3.19,0,0,0,0-.01,0-.86,.16-2.78,1.45-4.26-1.6Zm-74.51,1.34s-.01,0-.02,0c-2.11-1-4.26-1.98-6.45-2.93-21.18-9.18-35.96-9.89-54.49-7.64,0,0,0,0,0,0,.51-.38,1.03-.74,1.54-1.08,8.43-5.58,17.12-10.45,32.41-9.66,13.33,.69,22.96,6.22,29.94,12.64,4.64,4.27,3.27,5.77,2.52,7.32-1.48,3.06-4.59,1.5-5.44,1.34Zm-59.43,93.04c-.49-.32-.98-.67-1.47-1.03,18.49,2.24,33.27,1.51,54.41-7.65,2.24-.97,4.43-1.97,6.58-2.99,.96-.23,3.92-1.6,5.36,1.36,.75,1.55,2.12,3.06-2.52,7.32-6.98,6.42-16.62,11.95-29.94,12.64-15.3,.79-23.98-4.08-32.41-9.66Z"/></g></g></svg>