<svg xmlns="http://www.w3.org/2000/svg" viewBox="0 0 215.86 299.24"><defs><style>.cls-1{fill:#bd3128;}.cls-2{fill:none;}</style></defs><g id="Layer_2" data-name="Layer 2"><g id="Layer_3" data-name="Layer 3"><path class="cls-1" d="M73.71,0S58.6,31.9,56.52,49C54.27,67.51,55,82.3,64.16,103.48c4.4,10.15,9.28,19.53,15.19,27.19a119,119,0,0,0,15.1,16.62c2.44,2.18,11.84,12.52,17.07,6.33,5.38-6.38-.19-8.38-10-18.67-4.94-5.18-9.88-10.55-13.84-15.28-6.5-7.79-11.52-18.36-14.92-26.69C67,79.05,66,72.7,65,62.65a99.49,99.49,0,0,1,0-25.91A168.75,168.75,0,0,1,73.71,0Z"/><path class="cls-1" d="M141.9,0S157,31.9,159.1,49c2.25,18.52,1.53,33.31-7.64,54.49-4.4,10.15-9.28,19.53-15.19,27.19a118.32,118.32,0,0,1-15.11,16.62c-2.43,2.18-11.83,12.52-17.06,6.33-5.38-6.38.19-8.38,10-18.67,5-5.18,9.89-10.55,13.84-15.28,6.51-7.79,11.53-18.36,14.93-26.69,5.69-13.93,6.72-20.28,7.74-30.33a99.49,99.49,0,0,0,0-25.91A168.4,168.4,0,0,0,141.9,0Z"/><path class="cls-1" d="M141.9,299.24s15.12-31.9,17.2-49c2.25-18.53,1.53-33.32-7.64-54.5-4.4-10.15-9.28-19.53-15.19-27.19A118.32,118.32,0,0,0,121.16,152c-2.43-2.18-11.83-12.52-17.06-6.33-5.38,6.38.19,8.39,10,18.67,5,5.19,9.89,10.55,13.84,15.28,6.51,7.79,11.53,18.36,14.93,26.69,5.69,13.93,6.72,20.28,7.74,30.34a99.4,99.4,0,0,1,0,25.9A168.4,168.4,0,0,1,141.9,299.24Z"/><path class="cls-1" d="M73.71,299.22s-15.11-31.9-17.19-49c-2.25-18.53-1.53-33.32,7.64-54.5,4.4-10.15,9.28-19.53,15.19-27.19a119.54,119.54,0,0,1,15.1-16.62c2.44-2.18,11.84-12.52,17.07-6.33,5.38,6.38-.19,8.39-10,18.68-4.94,5.18-9.88,10.55-13.84,15.28-6.5,7.78-11.52,18.35-14.92,26.68C67,220.17,66,226.52,65,236.58a99.4,99.4,0,0,0,0,25.9A168.75,168.75,0,0,0,73.71,299.22Z"/><path class="cls-1" d="M134,81.5s0-12.09-10-20.09c-4.92-3.93-14.41-5.95-23.45-3.86C89.9,60,81.17,67.4,77.53,73.62,73.22,81,71.59,85.14,71.59,97.33a33,33,0,0,0,4.15,16.51c3.19,5.26,14.59,16.65,16.93,16.64,5.87,0-3.4-6.36-8.14-18a47,47,0,0,1-3.6-14.42c-.4-7.15.2-12.92,3.47-18.3C88.15,73.57,91.9,69.05,97,66.24A26.86,26.86,0,0,1,122,65.33C130.44,69.17,134,81.5,134,81.5Z"/><polygon class="cls-1" points="107.79 87.66 102.38 143.67 113.21 143.67 107.79 87.66"/><path class="cls-1" d="M81.87,216.55s0,12.09,10,20.09c4.92,3.93,14.4,6,23.45,3.87,10.64-2.46,19.37-9.85,23-16.07,4.31-7.38,6-11.52,6-23.71a33,33,0,0,0-4.16-16.51C137,179,125,167.92,122.66,167.94c-5.87,0,2.76,6.3,8.25,17.6A40,40,0,0,1,135,200c.4,7.15-.2,12.92-3.47,18.31-3.76,6.18-7.51,10.7-12.56,13.52a26.87,26.87,0,0,1-25.06.91C85.44,228.88,81.87,216.55,81.87,216.55Z"/><path class="cls-1" d="M107.79,15.83S92.46,18.12,79.52,25c-5.26,2.81-16.5,8-26.08,19.11C42,57.39,38,75.79,39.9,88c1.72,10.93,7.1,23.59,13,31.25s8.53,11.12,13,15.3c9.74,9.09,15.76,10.31,15.76,10.31a32,32,0,0,1-5.89-6.17c-3.72-5.27-7-9.77-2.94-12.84,2.27-1.73,3.11.29,4,1.36,1.84,2.23,3.9-4.37-.75-11.27-3-4.46-9.21-8.07-8.73-5.45.16.86,1.46,2.78-1.6,4.26-1.55.75-3,2.12-7.32-2.52A46.59,46.59,0,0,1,45.79,82.3c-.8-15.3,4.08-24,9.66-32.42,3.95-6,10.47-12.08,20.71-20C90.1,19.22,107.79,15.83,107.79,15.83Z"/><path class="cls-1" d="M107.79,282.75s-15.33-2.28-28.27-9.19c-5.26-2.8-16.5-8-26.08-19.1C42,241.19,38,222.8,39.9,210.58c1.72-10.93,7.1-23.59,13-31.25s8.53-11.12,13-15.3c9.74-9.1,15.76-10.31,15.76-10.31a32.15,32.15,0,0,0-5.89,6.16c-3.72,5.27-7,9.77-2.94,12.85,2.27,1.73,3.8-.73,4.68-1.8,1.84-2.23,3.21,4.81-1.44,11.71-3,4.46-9.47,9.25-9,6.63.16-.85,1.72-4-1.34-5.44-1.55-.76-3-2.12-7.32,2.52a46.57,46.57,0,0,0-12.64,29.94c-.8,15.29,4.08,24,9.66,32.41,3.95,6,10.47,12.09,20.71,19.95C90.1,279.37,107.79,282.75,107.79,282.75Z"/><path class="cls-1" d="M107.79,15.83s15.33,2.29,28.27,9.19c5.26,2.81,16.5,8,26.08,19.11C173.62,57.39,177.59,75.79,175.68,88c-1.71,10.93-7.1,23.59-13,31.25s-8.53,11.12-13,15.3c-9.74,9.09-15.76,10.31-15.76,10.31a32,32,0,0,0,5.89-6.17c3.73-5.27,7-9.77,2.94-12.84-2.27-1.73-3.82.73-4.71,1.8-1.83,2.23-3.18-4.81,1.48-11.71,3-4.46,9.11-8.73,8.63-6.12-.16.86-1.37,3.45,1.69,4.93,1.55.75,3.06,2.12,7.32-2.52A46.59,46.59,0,0,0,169.79,82.3c.8-15.3-4.08-24-9.65-32.42-4-6-10.47-12.08-20.71-20C125.48,19.22,107.79,15.83,107.79,15.83Z"/><path class="cls-1" d="M107.79,282.75s15.33-2.28,28.27-9.19c5.26-2.8,16.5-8,26.08-19.1,11.48-13.27,15.45-31.66,13.54-43.88-1.71-10.93-7.1-23.59-13-31.25s-8.53-11.12-13-15.3c-9.74-9.1-15.76-10.31-15.76-10.31a32.15,32.15,0,0,1,5.89,6.16c3.73,5.27,7,9.77,2.94,12.85-2.27,1.73-3.8-.73-4.68-1.8-1.84-2.23-3.21,4.81,1.45,11.71,3,4.46,9.46,9.25,9,6.63-.16-.85-1.72-4,1.34-5.44,1.55-.76,3.06-2.12,7.32,2.52a46.57,46.57,0,0,1,12.64,29.94c.8,15.29-4.08,24-9.65,32.41-4,6-10.47,12.09-20.71,19.95C125.48,279.37,107.79,282.75,107.79,282.75Z"/><path class="cls-1" d="M171.23,159.58h0Z"/><path class="cls-1" d="M37.49,150.73a10.26,10.26,0,0,0,.22,1.13A9.82,9.82,0,0,1,37.49,150.73Z"/><path class="cls-1" d="M44.65,159.58a10.72,10.72,0,0,1-6.94-7.72C39,157.05,44.28,159.43,44.65,159.58Z"/><path class="cls-1" d="M58.9,149.42a10.75,10.75,0,0,1-10.74,10.75,10.6,10.6,0,0,1-3.49-.58h0c-1.66-.29-6.94-3.81-13-5.57C25.43,152.19,0,149.42,0,149.42s25.43-2.77,31.66-4.59c6.06-1.78,11.35-5.31,13-5.58h0a10.6,10.6,0,0,1,3.49-.58A10.74,10.74,0,0,1,58.9,149.42Z"/><path class="cls-1" d="M215.86,149.42s-25.43,2.77-31.66,4.59c-6,1.75-11.28,5.24-13,5.57h0a10.54,10.54,0,0,1-3.48.58,10.75,10.75,0,0,1,0-21.5,10.54,10.54,0,0,1,3.48.58h0c1.67.29,7,3.8,13,5.57C190.43,146.65,215.86,149.42,215.86,149.42Z"/><line class="cls-2" x1="118.7" y1="149.62" x2="118.7" y2="149.62"/><polygon class="cls-1" points="107.79 210.39 113.21 154.38 102.38 154.38 107.79 210.39"/></g></g></svg>